<?xml version="1.0" standalone="no"?>
<!DOCTYPE svg PUBLIC "-//W3C//DTD SVG 20010904//EN"
 "http://www.w3.org/TR/2001/REC-SVG-20010904/DTD/svg10.dtd">
<svg version="1.0" xmlns="http://www.w3.org/2000/svg"
 width="1138.000000pt" height="1138.000000pt" viewBox="0 0 1138.000000 1138.000000"
 preserveAspectRatio="xMidYMid meet">
<metadata>
Created by potrace 1.14, written by Peter Selinger 2001-2017
</metadata>
<g transform="translate(0.000000,1138.000000) scale(0.100000,-0.100000)"
fill="#000000" stroke="none">
<path d="M7630 10555 c0 -8 -4 -15 -8 -15 -4 0 -13 -12 -20 -27 -6 -16 -25
-48 -42 -73 -17 -25 -33 -53 -36 -62 -4 -10 -10 -18 -14 -18 -4 0 -10 -8 -13
-17 -7 -19 -18 -38 -117 -195 -36 -57 -72 -115 -80 -129 -51 -87 -75 -124 -82
-127 -4 -2 -8 -8 -8 -13 0 -6 -16 -35 -35 -65 -19 -30 -35 -58 -35 -63 0 -5
-4 -11 -8 -13 -4 -1 -37 -50 -71 -108 -35 -58 -68 -108 -73 -111 -5 -3 -8 -8
-6 -10 1 -3 -17 -36 -41 -74 -25 -39 -44 -73 -43 -77 1 -5 -1 -8 -6 -8 -4 0
-16 -17 -27 -37 -11 -21 -23 -42 -28 -48 -23 -30 -57 -87 -57 -95 0 -6 -4 -10
-10 -10 -5 0 -9 -3 -8 -7 2 -5 -18 -39 -43 -78 -24 -38 -58 -92 -74 -119 -17
-28 -40 -66 -52 -85 -13 -20 -32 -52 -43 -71 -11 -19 -33 -55 -48 -80 l-28
-45 -3237 -3 -3237 -2 0 -985 0 -985 2625 0 c1471 0 2625 -4 2625 -9 0 -4 -9
-20 -20 -34 -11 -14 -20 -30 -20 -36 0 -6 -4 -11 -10 -11 -5 0 -10 -5 -10 -11
0 -6 -15 -34 -33 -62 -35 -54 -93 -146 -114 -182 -7 -11 -16 -28 -19 -37 -3
-10 -10 -18 -15 -18 -5 0 -9 -7 -9 -15 0 -8 -4 -15 -9 -15 -5 0 -11 -8 -15
-17 -3 -10 -11 -27 -18 -37 -42 -63 -78 -126 -78 -136 0 -5 -4 -10 -8 -10 -5
0 -15 -12 -23 -27 -8 -16 -26 -47 -41 -69 -16 -23 -28 -47 -28 -53 0 -6 -4
-11 -9 -11 -5 0 -13 -10 -17 -22 -4 -13 -9 -25 -13 -28 -8 -7 -28 -39 -43 -70
-7 -14 -18 -30 -24 -37 -6 -6 -33 -49 -60 -93 -27 -45 -58 -97 -69 -115 -11
-18 -40 -66 -65 -106 -24 -41 -47 -76 -50 -79 -9 -9 -41 -65 -47 -82 -3 -10
-9 -18 -14 -18 -5 0 -9 -7 -9 -15 0 -8 -4 -15 -10 -15 -5 0 -10 -4 -10 -10 0
-9 -31 -61 -95 -160 -23 -36 -170 -276 -196 -320 -8 -13 -19 -30 -26 -37 -9
-11 -393 -13 -2017 -13 l-2006 0 0 -984 c0 -646 3 -987 10 -991 6 -3 10 -1 10
5 0 8 6 8 20 0 11 -6 20 -7 20 -2 0 5 18 6 40 2 22 -4 40 -3 40 2 0 5 9 4 20
-2 11 -6 20 -7 20 -2 0 5 18 6 40 2 22 -4 40 -3 40 2 0 5 9 4 20 -2 15 -8 20
-8 20 1 0 9 3 9 14 0 10 -8 16 -9 21 -1 4 7 12 7 26 0 10 -6 19 -7 19 -2 0 5
18 6 40 2 22 -4 40 -3 40 2 0 5 9 4 20 -2 11 -6 20 -7 20 -2 0 5 18 6 40 2 22
-4 40 -3 40 2 0 5 9 4 20 -2 14 -8 20 -8 20 0 0 8 6 8 20 0 14 -8 20 -8 20 0
0 8 6 8 20 0 11 -6 20 -7 20 -2 0 5 18 6 40 2 22 -4 40 -3 40 2 0 5 9 4 20 -2
11 -6 20 -7 20 -2 0 5 18 6 40 2 22 -4 40 -3 40 2 0 5 9 4 20 -2 15 -8 20 -8
20 1 0 9 3 9 14 0 10 -8 16 -9 21 -1 4 7 12 7 26 0 10 -6 19 -7 19 -2 0 5 18
6 40 2 22 -4 40 -3 40 2 0 5 9 4 20 -2 11 -6 20 -7 20 -2 0 5 18 6 40 2 22 -4
40 -3 40 2 0 5 9 4 20 -2 11 -6 20 -7 20 -2 0 5 18 6 40 2 22 -4 40 -3 40 2 0
5 9 4 20 -2 11 -6 20 -7 20 -2 0 5 18 6 40 2 22 -4 40 -3 40 2 0 5 9 4 20 -2
11 -6 20 -7 20 -2 0 5 18 6 40 2 22 -4 40 -3 40 2 0 5 9 4 20 -2 11 -6 20 -7
20 -2 0 5 18 6 40 2 22 -4 40 -3 40 2 0 5 9 4 20 -2 11 -6 20 -7 20 -2 0 5 18
6 40 2 22 -4 40 -3 40 2 0 5 9 4 20 -2 11 -6 20 -7 20 -3 0 4 99 6 220 3 121
-3 220 -1 220 3 0 4 9 3 20 -3 11 -6 20 -7 20 -2 0 5 18 6 40 2 22 -4 40 -3
40 2 0 5 9 4 20 -2 11 -6 20 -7 20 -2 0 5 18 6 40 2 25 -5 40 -4 40 3 0 6 5 5
13 -1 7 -6 19 -7 26 -3 7 5 28 5 47 1 20 -5 34 -4 34 1 0 6 9 5 20 -1 11 -6
20 -7 20 -3 0 11 84 10 92 -1 3 -5 0 -16 -8 -23 -8 -8 -12 -19 -9 -24 4 -5 2
-9 -3 -9 -6 0 -15 -13 -21 -30 -5 -16 -15 -30 -20 -30 -6 0 -11 -7 -11 -15 0
-8 -5 -15 -10 -15 -6 0 -9 -3 -8 -7 1 -5 -9 -26 -23 -48 -105 -165 -159 -255
-159 -264 0 -6 -3 -11 -8 -11 -4 0 -16 -17 -27 -37 -11 -21 -23 -40 -26 -43
-3 -3 -21 -30 -38 -60 -42 -72 -52 -89 -76 -125 -11 -16 -28 -46 -39 -65 -10
-19 -21 -37 -25 -40 -3 -3 -15 -21 -25 -40 -11 -19 -22 -37 -25 -40 -3 -3 -12
-15 -18 -27 -7 -13 -19 -33 -25 -45 -7 -13 -15 -25 -18 -28 -8 -8 -70 -111
-70 -116 0 -3 -5 -10 -10 -17 -14 -16 -120 -188 -120 -194 0 -3 -13 -23 -29
-46 -15 -23 -50 -78 -77 -122 -26 -44 -52 -81 -56 -83 -4 -2 -8 -8 -8 -14 0
-6 -34 -64 -75 -130 -41 -65 -75 -123 -75 -129 0 -5 66 -9 158 -10 86 0 240
-2 342 -5 102 -2 190 -4 195 -4 6 0 50 1 98 3 49 1 91 -1 93 -5 2 -4 17 -4 32
-1 15 3 32 5 37 5 6 0 253 -3 550 -7 l541 -5 22 29 c12 17 22 34 22 40 0 5 4
11 8 13 4 2 21 26 36 53 16 28 49 80 73 117 23 37 43 70 43 73 0 3 5 11 11 18
5 7 55 84 109 172 54 88 103 165 107 170 5 6 16 25 23 42 8 18 18 33 21 33 4
0 14 15 23 33 9 17 43 74 75 124 33 51 70 112 83 135 13 24 27 46 31 49 9 6
29 39 46 74 5 11 21 35 35 54 14 19 26 41 26 48 0 7 3 13 8 13 4 0 12 9 17 20
6 11 53 89 105 172 52 83 104 166 115 184 150 247 149 245 178 241 15 -2 27 0
27 5 0 5 9 4 20 -2 11 -6 20 -7 20 -2 0 5 18 6 40 2 22 -4 40 -3 40 2 0 5 9 4
20 -2 11 -6 20 -7 20 -3 0 4 90 6 200 3 110 -3 200 -1 200 3 0 4 9 3 20 -3 11
-6 20 -7 20 -2 0 5 18 6 40 2 22 -4 40 -3 40 2 0 5 9 4 20 -2 11 -6 20 -7 20
-2 0 5 18 6 40 2 22 -4 40 -3 40 2 0 5 9 4 20 -2 11 -6 20 -7 20 -2 0 5 18 6
40 2 22 -4 40 -3 40 2 0 5 9 4 20 -2 11 -6 20 -7 20 -2 0 5 18 6 40 2 22 -4
40 -3 40 2 0 5 9 4 20 -2 11 -6 20 -7 20 -3 0 4 171 6 380 3 209 -3 380 -1
380 3 0 4 9 3 20 -3 11 -6 20 -7 20 -2 0 5 18 6 40 2 22 -4 40 -3 40 2 0 5 9
4 20 -2 11 -6 20 -7 20 -2 0 5 18 6 40 2 22 -4 40 -3 40 2 0 5 9 4 20 -2 11
-6 20 -7 20 -2 0 5 18 6 40 2 22 -4 40 -3 40 2 0 5 9 4 20 -2 11 -6 20 -7 20
-2 0 5 18 6 40 2 22 -4 40 -3 40 2 0 5 9 4 20 -2 11 -6 20 -7 20 -3 0 4 90 6
200 3 110 -3 200 -1 200 3 0 4 9 3 20 -3 11 -6 20 -7 20 -2 0 5 18 6 40 2 22
-4 40 -3 40 2 0 5 9 4 20 -2 11 -6 20 -7 20 -2 0 5 18 6 40 2 22 -4 40 -3 40
2 0 5 9 4 20 -2 15 -8 20 -8 20 1 0 9 3 9 14 0 10 -8 16 -9 21 -1 4 7 12 7 26
0 10 -6 19 -7 19 -2 0 5 18 6 40 2 22 -4 40 -3 40 2 0 5 9 4 20 -2 11 -6 20
-7 20 -2 0 5 18 6 40 2 22 -4 40 -3 40 2 0 5 9 4 20 -2 14 -8 20 -8 20 0 0 8
6 8 20 0 14 -8 20 -8 20 0 0 8 6 8 20 0 11 -6 20 -7 20 -2 0 5 18 6 40 2 22
-4 40 -3 40 2 0 5 9 4 20 -2 11 -6 20 -7 20 -2 0 5 18 6 40 2 22 -4 40 -3 40
2 0 5 9 4 20 -2 15 -8 20 -8 20 1 0 9 3 9 14 0 10 -8 16 -9 21 -1 4 7 12 7 26
0 10 -6 19 -7 19 -2 0 5 18 6 40 2 22 -4 40 -3 40 2 0 5 9 4 20 -2 11 -6 20
-7 20 -2 0 5 18 6 40 2 22 -4 40 -3 40 2 0 5 9 4 20 -2 11 -6 20 -7 20 -2 0 5
18 6 40 2 22 -4 40 -3 40 2 0 5 9 4 20 -2 11 -6 20 -7 20 -2 0 5 18 6 40 2 22
-4 40 -3 40 2 0 5 9 4 20 -2 11 -6 20 -7 20 -2 0 5 18 6 40 2 22 -4 40 -3 40
2 0 5 9 4 20 -2 11 -6 20 -7 20 -2 0 5 18 6 40 2 22 -4 40 -3 40 2 0 5 9 4 20
-2 11 -6 20 -7 20 -2 0 5 18 6 40 2 22 -4 40 -3 40 2 0 5 9 4 20 -2 11 -6 20
-7 20 -3 0 4 99 6 220 3 121 -3 220 -1 220 3 0 4 9 3 20 -3 11 -6 20 -7 20 -2
0 5 18 6 40 2 22 -4 40 -3 40 2 0 5 9 4 20 -2 11 -6 20 -7 20 -2 0 5 18 6 40
2 22 -4 40 -3 40 2 0 5 9 4 20 -2 11 -6 20 -7 20 -2 0 5 18 6 40 2 22 -4 40
-3 40 2 0 5 9 4 20 -2 11 -6 20 -7 20 -2 0 5 18 6 40 2 22 -4 40 -3 40 2 0 5
9 4 20 -2 11 -6 20 -7 20 -3 0 4 99 6 220 3 121 -3 220 -1 220 3 0 4 9 3 20
-3 11 -6 20 -7 20 -2 0 5 18 6 40 2 22 -4 40 -3 40 2 0 5 9 4 20 -2 11 -6 20
-7 20 -2 0 5 18 6 40 2 22 -4 40 -3 40 2 0 5 9 4 20 -2 11 -6 20 -7 20 -2 0 5
18 6 40 2 22 -4 40 -3 40 2 0 5 9 4 20 -2 12 -6 20 -7 20 -1 0 5 9 7 20 4 20
-5 20 0 20 981 l0 986 -2634 0 -2635 0 25 42 c36 63 48 82 54 88 3 3 11 16 19
30 29 50 125 206 145 235 29 41 42 63 67 110 12 22 24 42 28 45 8 6 71 110 71
116 0 3 5 10 10 17 26 30 77 116 72 121 -3 3 0 6 6 6 7 0 12 6 12 14 0 8 4 16
9 18 4 2 19 22 32 45 13 23 51 85 84 138 33 53 67 107 75 121 8 13 65 103 125
200 61 97 112 181 114 187 2 6 8 16 13 22 15 18 88 134 88 140 0 4 6 13 13 20
6 8 50 77 97 154 l85 140 275 1 c151 0 1057 0 2013 0 l1737 0 0 985 0 985
-1395 -2 c-767 -2 -1395 1 -1395 5 0 12 53 101 62 105 4 2 8 8 8 14 0 5 21 44
48 85 26 41 64 101 85 133 20 33 37 63 37 69 0 5 3 11 8 13 4 2 28 36 52 76
25 40 57 92 72 115 16 23 34 56 42 73 8 17 22 36 30 44 9 7 16 16 16 21 0 5
21 41 47 81 26 40 47 76 45 81 -1 4 2 7 8 7 5 0 10 6 10 13 0 7 8 22 18 33 11
11 21 24 23 30 2 6 40 68 84 138 119 190 125 200 132 219 3 9 9 17 14 17 5 0
9 6 9 13 0 8 9 22 20 32 10 9 18 20 17 24 -1 3 19 38 44 76 43 67 95 151 168
273 19 31 37 59 40 62 3 3 12 15 19 28 l12 22 -1065 0 c-940 0 -1065 -2 -1065
-15z"/>
</g>
</svg>
